<svg width="19" height="16" viewBox="0 0 19 16" fill="none" xmlns="http://www.w3.org/2000/svg">
<path d="M9.99066 14.6564C9.45018 14.138 9.44971 13.274 9.98962 12.7551L12.0921 10.7343C13.7778 9.11411 13.7778 6.41708 12.0921 4.79687L9.98962 2.77608C9.44971 2.25715 9.45018 1.39317 9.99066 0.874825C10.5005 0.38587 11.3052 0.38587 11.815 0.874825L15.2373 4.15695C17.2894 6.12508 17.2894 9.40611 15.2373 11.3742L11.815 14.6564C11.3052 15.1453 10.5005 15.1453 9.99066 14.6564Z" fill="#D49797"/>
<path d="M0.990656 14.6564C0.450178 14.138 0.449707 13.274 0.98962 12.7551L3.0921 10.7343C4.77781 9.11411 4.77781 6.41708 3.0921 4.79687L0.98962 2.77608C0.449708 2.25715 0.450178 1.39317 0.990656 0.874825C1.50049 0.38587 2.30518 0.38587 2.81501 0.874825L6.23727 4.15695C8.28944 6.12508 8.28944 9.40611 6.23727 11.3742L2.81501 14.6564C2.30518 15.1453 1.50049 15.1453 0.990656 14.6564Z" fill="#D49797"/>
</svg>
